<?xml version="1.0" standalone="no"?>
<!DOCTYPE svg PUBLIC "-//W3C//DTD SVG 1.1//EN" "http://www.w3.org/Graphics/SVG/1.1/DTD/svg11.dtd">
<svg t="1702641439566" class="icon" viewBox="0 0 1024 1024" version="1.1"
    xmlns="http://www.w3.org/2000/svg" p-id="12221" xmlns:xlink="http://www.w3.org/1999/xlink"
    width="24" height="24">
    <path
        d="M892.8 428.8H800v304c0 16-12.8 28.8-28.8 28.8s-28.8-12.8-28.8-28.8V272l-163.2 163.2h-96v-96l6.4-6.4 188.8-188.8H128c-12.8 0-22.4 9.6-22.4 22.4v684.8c0 12.8 9.6 22.4 22.4 22.4h764.8c12.8 0 22.4-9.6 22.4-22.4V451.2c0-12.8-9.6-22.4-22.4-22.4zM211.2 278.4H448c16 0 28.8 12.8 28.8 28.8s-12.8 28.8-28.8 28.8H211.2c-16 0-28.8-12.8-28.8-28.8 0-19.2 12.8-28.8 28.8-28.8z m422.4 480H211.2c-16 0-28.8-12.8-28.8-28.8s12.8-28.8 28.8-28.8h422.4c16 0 28.8 12.8 28.8 28.8s-12.8 28.8-28.8 28.8z m0-118.4H211.2c-16 0-28.8-12.8-28.8-28.8s12.8-28.8 28.8-28.8h422.4c16 0 28.8 12.8 28.8 28.8s-12.8 28.8-28.8 28.8z m0-121.6H211.2c-16 0-28.8-12.8-28.8-28.8s12.8-28.8 28.8-28.8h422.4c16 0 28.8 12.8 28.8 28.8s-12.8 28.8-28.8 28.8z"
        p-id="12222"></path>
    <path
        d="M732.8 150.4l38.4 38.4c3.2 3.2 3.2 12.8 0 16l-204.8 201.6-60.8 3.2 6.4-57.6 204.8-201.6c3.2-3.2 12.8-3.2 16 0z"
        p-id="12223"></path>
</svg>