<?xml version="1.0" standalone="no"?>
<!DOCTYPE svg PUBLIC "-//W3C//DTD SVG 1.1//EN" "http://www.w3.org/Graphics/SVG/1.1/DTD/svg11.dtd">
<svg t="1702641328944" class="icon" viewBox="0 0 1024 1024" version="1.1"
    xmlns="http://www.w3.org/2000/svg" p-id="7335" xmlns:xlink="http://www.w3.org/1999/xlink"
    width="24" height="24">
    <path
        d="M298.445 721.782l209.94-59.918-150.021-149.121zM859.337 313.164l-150.022-149.12-330.228 327.975L529.109 641.14zM928.716 187.921l-93.707-92.806c-15.318-15.318-41.447-14.417-58.116 1.802l-45.052 44.601 150.022 149.121 45.052-44.601c16.668-16.669 17.569-42.349 1.801-58.117z"
         p-id="7336"></path>
    <path
        d="M851.678 451.022c-22.526 0-40.546 18.021-40.546 40.546v347.348c0 10.812-9.01 19.823-19.823 19.823H184.915c-10.812 0-19.823-9.01-19.823-19.823V232.522c0-10.812 9.01-19.823 19.823-19.823h350.051c22.526 0 40.546-18.021 40.546-40.546 0-22.526-18.021-40.546-40.546-40.546H184.915C129.502 131.607 84 176.658 84 232.522v606.394c0 55.413 45.502 100.916 100.915 100.916h606.394c55.864 0 100.915-45.502 100.915-100.915V491.569c0.001-22.526-18.02-40.547-40.546-40.547z"
         p-id="7337"></path>
</svg>