<?xml version="1.0" standalone="no"?>
<!DOCTYPE svg PUBLIC "-//W3C//DTD SVG 1.1//EN" "http://www.w3.org/Graphics/SVG/1.1/DTD/svg11.dtd">
<svg t="1702304380358" class="icon" viewBox="0 0 1024 1024" version="1.1"
    xmlns="http://www.w3.org/2000/svg" p-id="12474" xmlns:xlink="http://www.w3.org/1999/xlink"
    width="22" height="22">
    <path
        d="M358.377053 0.065a158.709961 158.709961 0 0 1 74.644981 49.046988 85.498979 85.498979 0 0 1 25.086994 60.462985V395.559903a85.600979 85.600979 0 0 1-85.652979 85.753979H85.755119A85.600979 85.600979 0 0 1 0.00014 395.559903V109.829973a85.549979 85.549979 0 0 1 25.034994-60.513985A167.105959 167.105959 0 0 1 102.393115 0.065h255.983938zM85.550119 566.914862h286.70193a85.600979 85.600979 0 0 1 85.599979 85.600979v285.98493A85.549979 85.549979 0 0 1 372.457049 1023.99975H85.755119A85.549979 85.549979 0 0 1 0.00014 938.500771v-285.77993a85.651979 85.651979 0 0 1 85.600979-85.599979z m541.968868 0h287.77593a85.651979 85.651979 0 0 1 60.514985 25.086993 153.845962 153.845962 0 0 1 48.124988 73.619982v255.984938a164.75096 164.75096 0 0 1-48.073988 77.408981A85.600979 85.600979 0 0 1 915.346917 1023.99975H629.463986a85.549979 85.549979 0 0 1-85.599979-85.549979V652.720841a85.600979 85.600979 0 0 1 85.599979-85.599979zM816.946941 25.150994L998.796896 206.899949a85.549979 85.549979 0 0 1 0 121.284971l-181.901955 181.849955a85.600979 85.600979 0 0 1-121.335971 0l-181.849955-181.798955a85.600979 85.600979 0 0 1 0-121.284971L695.60997 25.202994a85.549979 85.549979 0 0 1 121.131971 0z m-18.277996 59.439985"
        p-id="12475"></path>
</svg>