<?xml version="1.0" standalone="no"?>
<!DOCTYPE svg PUBLIC "-//W3C//DTD SVG 1.1//EN" "http://www.w3.org/Graphics/SVG/1.1/DTD/svg11.dtd">
<svg t="1702641360603" class="icon" viewBox="0 0 1024 1024" version="1.1"
    xmlns="http://www.w3.org/2000/svg" p-id="9245" xmlns:xlink="http://www.w3.org/1999/xlink"
    width="24" height="24">
    <path
        d="M759.818449 701.607184a30.500571 30.500571 0 0 1-30.41698 30.573714H691.09551a30.500571 30.500571 0 0 1-30.416979-30.573714V493.651592a30.500571 30.500571 0 0 1 30.40653-30.584163h38.305959c16.79151 0 30.406531 13.688163 30.406531 30.584163v207.955592z m-198.258939 0a30.500571 30.500571 0 0 1-30.40653 30.573714h-38.30596a30.500571 30.500571 0 0 1-30.40653-30.573714V322.392816a30.500571 30.500571 0 0 1 30.40653-30.573714h38.30596c16.79151 0 30.406531 13.688163 30.40653 30.573714v379.214368z m-198.24849 0a30.500571 30.500571 0 0 1-30.40653 30.573714h-38.305959a30.500571 30.500571 0 0 1-30.406531-30.573714V603.742041a30.500571 30.500571 0 0 1 30.406531-30.584163h38.29551c16.801959 0 30.41698 13.688163 30.416979 30.584163v97.865143z m536.868572-498.343184L583.57551 19.299265a142.377796 142.377796 0 0 0-143.15102 0L123.820408 203.264A144.248163 144.248163 0 0 0 52.244898 328.035265v367.92947c0 51.471673 27.282286 99.035429 71.57551 124.771265l316.604082 183.964735a142.377796 142.377796 0 0 0 143.15102 0l316.604082-183.964735A144.248163 144.248163 0 0 0 971.755102 695.964735V328.035265c0-51.471673-27.282286-99.035429-71.57551-124.771265z"
     p-id="9246"></path>
</svg>